# xmcd
#
# Track frame offsets:
#	150
#	12689
#	29112
#	46541
#	61170
#	79038
#	92259
#	104839
#	118004
#	132907
#	142112
#	159644
#	178580
#	197702
#	211125
#	222592
#	237295
#	251898
#	265799
#	279509
#	292352
#	304885
#	316978
#	330253
#	342789
#
# Disc length: 4745 seconds
#
# Revision: 3
# Processed by: cddbd v1.5.2PL0 Copyright (c) Steve Scherf et al.
# Submitted via: audiograbber 1.83.01
#
DISCID=7f128719
DTITLE=Boogie Woogie Classics - Boogie Woogie Classics - Blue Note Boogie
DYEAR=1945
DGENRE=Jazz Piano
TTITLE0=Pete Johnson and Albert Ammons - Foot Pedal Boogie
TTITLE1=Johnson, James P. - J.P. Boogie
TTITLE2=Edmond Hall (James P. Johnson) - Blue Note Boogie
TTITLE3=Jimmy Yancey - The Rocks
TTITLE4=James P. Johnson - Mule Walk Stomp
TTITLE5=Sidney De Paris (Clyde Hart) - Change O'Key Boogie
TTITLE6=Pete Johnson - Kaycee Feeling
TTITLE7=Pete Johnson - Dive Bomber
TTITLE8=Lionel Hampton - Hamp's Boogie Woogie
TTITLE9=Meade Lux Lewis with Albert Ammons - Boogie Woogie Prayer
TTITLE10=Meade Lux Lewis - Chicago Flyer
TTITLE11=Meade Lux Lewis - Blues Whistle Boogie
TTITLE12=Meade Lux Lewis - Meade's Blues
TTITLE13=Earl Hines - Boogie Woogie On St. Louis Blues
TTITLE14=Red Caps - The Boogie Beat'll Getcha
TTITLE15=Lionel Hampton - Two Finger Boogie
TTITLE16=Lionel Hampton - Beulah's Boogie
TTITLE17=Jay McShann - McShann's Boogie Blues
TTITLE18=Jay McShann - Garfield Avenue Boogie
TTITLE19=Slim Gaillard - Boogin' At Berg's
TTITLE20=Big Maceo - Detroit Jump
TTITLE21=Jack McVea - Bartender Boogie
TTITLE22=Big Maceo - Chicago Breakdown
TTITLE23=Wild Bill Moore (Wilbert Baranco) - Boulevard Boogie
TTITLE24=Slim Gaillard - Early Morning Boogie
EXTD=
EXTT0=
EXTT1=
EXTT2=
EXTT3=
EXTT4=
EXTT5=
EXTT6=
EXTT7=
EXTT8=
EXTT9=
EXTT10=
EXTT11=
EXTT12=
EXTT13=
EXTT14=
EXTT15=
EXTT16=
EXTT17=
EXTT18=
EXTT19=
EXTT20=
EXTT21=
EXTT22=
EXTT23=
EXTT24=
PLAYORDER=
